<svg width="164" height="22" viewBox="0 0 164 22" fill="none" xmlns="http://www.w3.org/2000/svg">
<path d="M52.6689 15.8516C51.4502 14.7266 50.8408 13.0703 50.8408 10.8828C50.8408 8.6875 51.4502 7.03125 52.6689 5.91406C53.8877 4.78906 55.6377 4.22656 57.9189 4.22656C60.208 4.22656 61.9619 4.78906 63.1807 5.91406C64.3994 7.03125 65.0088 8.6875 65.0088 10.8828C65.0088 13.0703 64.3994 14.7266 63.1807 15.8516C61.9619 16.9766 60.208 17.5391 57.9189 17.5391C55.6377 17.5391 53.8877 16.9766 52.6689 15.8516ZM55.6338 7.83594C55.1494 8.46875 54.9072 9.48047 54.9072 10.8711C54.9072 12.2617 55.1494 13.2773 55.6338 13.918C56.1182 14.5586 56.8799 14.8789 57.9189 14.8789C58.9658 14.8789 59.7314 14.5586 60.2158 13.918C60.708 13.2773 60.9541 12.2617 60.9541 10.8711C60.9541 9.48047 60.708 8.46875 60.2158 7.83594C59.7314 7.20312 58.9658 6.88672 57.9189 6.88672C56.8799 6.88672 56.1182 7.20312 55.6338 7.83594Z" fill="white"/>
<path d="M40.7148 16.3203C38.9414 16.3203 37.5078 15.7852 36.4141 14.7148C35.3281 13.6445 34.7852 12.1602 34.7852 10.2617C34.7852 8.36328 35.4062 6.88281 36.6484 5.82031C37.8906 4.75781 39.6719 4.22656 41.9922 4.22656C43.125 4.22656 44.3008 4.35547 45.5195 4.61328C46.7383 4.86328 47.6562 5.17188 48.2734 5.53906V16.3906C48.2734 18.1328 47.6992 19.418 46.5508 20.2461C45.4023 21.082 43.7891 21.5 41.7109 21.5C39.6406 21.5 38.043 21.2383 36.918 20.7148C35.8008 20.1992 35.2422 19.3438 35.2422 18.1484C35.2422 17.9375 35.3086 17.7617 35.4414 17.6211C35.582 17.4883 35.7578 17.4219 35.9688 17.4219H37.7148C38.2773 17.4219 38.7266 17.6289 39.0625 18.043C39.4922 18.5742 40.2539 18.8398 41.3477 18.8398C42.4492 18.8398 43.2031 18.6602 43.6094 18.3008C44.0156 17.9414 44.2188 17.3047 44.2188 16.3906V15.8398C42.9688 16.1602 41.8008 16.3203 40.7148 16.3203ZM41.7461 7.0625C39.8945 7.05469 38.9688 8.125 38.9688 10.2734C38.9688 12.4141 39.8711 13.4844 41.6758 13.4844C42.4258 13.4844 43.2734 13.3672 44.2188 13.1328V7.32031C43.5469 7.14062 42.7227 7.05469 41.7461 7.0625Z" fill="white"/>
<path d="M20.2754 16.4609C19.2441 15.7422 18.7285 14.7266 18.7285 13.4141C18.7285 12.1016 19.2441 11.0938 20.2754 10.3906C21.3145 9.6875 22.6504 9.33594 24.2832 9.33594H28.1621C28.1621 8.42188 27.9707 7.78516 27.5879 7.42578C27.2051 7.06641 26.5332 6.88672 25.5723 6.88672C24.6191 6.88672 23.9473 7.125 23.5566 7.60156C23.1738 8.07031 22.7012 8.30469 22.1387 8.30469H20.3926C20.1816 8.30469 20.0059 8.23828 19.8652 8.10547C19.7324 7.96484 19.666 7.79297 19.666 7.58984C19.666 5.34766 21.7949 4.22656 26.0527 4.22656C27.9121 4.22656 29.4043 4.64453 30.5293 5.48047C31.6543 6.30859 32.2168 7.59375 32.2168 9.33594V16.5898C32.2168 16.8008 32.1504 16.9727 32.0176 17.1055C31.8848 17.2383 31.7129 17.3047 31.502 17.3047H29.2402C29.0293 17.3047 28.8574 17.2383 28.7246 17.1055C28.5918 16.9648 28.5254 16.793 28.5254 16.5898V16.2266C27.291 17.1094 25.8652 17.5469 24.248 17.5391C22.6387 17.5391 21.3145 17.1797 20.2754 16.4609ZM24.5645 11.9961C24.0176 11.9961 23.584 12.1289 23.2637 12.3945C22.9512 12.6602 22.7949 13.0039 22.7949 13.4258C22.7949 13.8477 22.959 14.1953 23.2871 14.4688C23.6152 14.7422 24.0801 14.8789 24.6816 14.8789C25.8848 14.8789 27.0449 14.5273 28.1621 13.8242V11.9961H24.5645Z" fill="white"/>
<path d="M0 16.2031V1.61328C0 1.30859 0.105469 1.04688 0.316406 0.828125C0.527344 0.609375 0.785156 0.5 1.08984 0.5H10.0313C14.7578 0.5 17.1211 2.67969 17.1211 7.03906C17.1211 11.3906 14.7578 13.5664 10.0313 13.5664H4.41798V16.2031C4.41798 16.5078 4.3086 16.7695 4.08985 16.9883C3.87891 17.1992 3.6211 17.3047 3.31641 17.3047H1.11328C0.808594 17.3047 0.546875 17.1992 0.328125 16.9883C0.109375 16.7695 0 16.5078 0 16.2031ZM4.41798 10.25H8.69532C10.0078 10.25 11.0039 10.0312 11.6836 9.59375C12.3633 9.14844 12.7031 8.29688 12.7031 7.03906C12.7031 5.77344 12.3633 4.92188 11.6836 4.48438C11.0039 4.03906 10.0078 3.81641 8.69532 3.81641H4.41798V10.25Z" fill="white"/>
<path d="M109.435 10.3718L108.115 9.05254L106.894 10.1139L105.742 9.07237L104.472 10.4115L105.033 11.0761V15.0241L106.057 16.0855L107.111 15.0142L106.569 14.4984V11.2249L107.249 10.5901L107.879 11.2249V15.0241L108.893 16.0458L109.996 14.9447L109.435 14.419V10.3718Z" fill="white"/>
<path d="M115.698 10.1338V15.0141L117.865 15.9466L119.933 14.8555V10.0742L117.697 9.00298L115.698 10.1338ZM118.347 14.7662L117.136 14.2604V10.1833L118.347 10.729V14.7662Z" fill="white"/>
<path d="M133.04 14.8259L131.593 14.2009V13.3578L134.389 11.2747L132.489 9.06255L130.214 10.1934V15.0639L132.341 15.9468L134.429 14.4985C134.025 14.2307 133.542 15.0639 133.05 14.8259H133.04ZM131.593 10.2232L132.912 11.8301L131.593 12.7626V10.2232Z" fill="white"/>
<path d="M155.424 7.43559L154.341 6.33452L153.287 7.41575L154.371 8.49698L155.424 7.43559Z" fill="white"/>
<path d="M125.054 7.23732C125.369 7.47538 125.605 7.06874 125.969 7.16793L127.614 7.96142V9.34025L126.915 9.00302L124.945 10.1339V15.0142L127.112 15.9467L129.17 14.8556V7.17786L127.122 6.28508L125.054 7.23732ZM127.614 14.7662L126.403 14.2604V10.1834L127.614 10.729V14.7662Z" fill="white"/>
<path d="M149.949 10.342V6.37414C149.949 6.30471 148.373 7.94138 148.373 7.94138V15.0537L149.358 16.1152L150.412 15.0438L149.9 14.528V11.2546L150.481 10.6197L151.032 11.2546V17.4245L152.588 15.8672V10.3618L151.288 9.0227L149.949 10.342Z" fill="white"/>
<path d="M155.306 10.0842L154.302 9.16167L153.268 10.2528L153.681 10.6992V15.0241L154.706 16.0855L155.848 14.9249L155.306 14.3496V10.0842Z" fill="white"/>
<path d="M158.103 6.37419L156.478 7.83236V15.024L157.502 16.0854L158.645 14.9248L158.103 14.3495V6.37419Z" fill="white"/>
<path d="M162.249 14.8259L160.801 14.2009V13.3578L163.598 11.2747L161.697 9.06255L159.432 10.1934V15.0639L161.56 15.9468L163.657 14.4985C163.244 14.2307 162.761 15.0639 162.269 14.8259H162.249ZM160.811 10.2232L162.131 11.8301L160.811 12.7626V10.2232Z" fill="white"/>
<path d="M145.616 8.06062C146.945 8.31853 147.999 7.2273 148.62 6.61229C148.62 6.52301 148.511 6.53298 148.413 6.66193C147.615 7.46541 147.142 6.04696 146.443 5.82873C144.907 5.32283 143.774 7.08844 142.573 7.74313V13.298L142.11 13.7544C141.268 12.9333 140.735 11.8426 140.603 10.6693C140.239 8.28865 142.484 6.70153 144.395 5.70958C143.435 5.69238 142.487 5.91872 141.636 6.36769C140.786 6.81665 140.062 7.47391 139.53 8.27882C139.108 9.0527 138.86 9.91053 138.804 10.7916C138.748 11.6727 138.885 12.5556 139.205 13.3775C139.691 14.4746 140.566 15.3498 141.659 15.8322C142.751 16.3145 143.983 16.3695 145.114 15.9863C145.654 15.7999 146.139 15.481 146.526 15.0584C146.912 14.6359 147.189 14.1229 147.33 13.5659C146.739 13.6353 146.256 14.3098 145.626 14.2999L145.616 8.06062ZM145.212 14.3892C144.729 14.5099 144.225 14.5201 143.738 14.4188C143.251 14.3175 142.792 14.1074 142.396 13.8039L144.641 12.1177V6.84042L145.212 7.31665V14.3892Z" fill="white"/>
<path d="M114.221 10.9671L115.294 10.1735L113.039 9.10222L110.754 10.1834V14.8754L112.822 15.8674C112.92 15.924 113.03 15.9537 113.142 15.9537C113.255 15.9537 113.365 15.924 113.462 15.8674L115.166 14.5679H115.018C114.782 14.7737 114.503 14.923 114.201 15.0044L112.409 14.1611V10.2529L114.221 10.9671Z" fill="white"/>
<path d="M103.437 9.96514L101.36 9.03276L99.2718 10.0842L99.3703 10.1833C99.7248 9.98495 100.148 9.80649 100.355 9.90568L101.813 10.5306C101.903 10.5831 101.976 10.6628 102.019 10.7587V11.7507L101.035 11.3142L98.9172 12.445V14.9745L100.956 15.9665L102.571 15.3416L103.457 16.0855L104.442 15.0936L103.457 14.1016L103.437 9.96514ZM102.019 15.0439L100.257 14.2604V12.2765L102.019 13.1097V15.0439Z" fill="white"/>
<path d="M91.3934 6.40419C90.773 7.07871 89.6996 7.46554 89.1382 8.22934V12.465C89.1382 13.0998 88.6853 12.951 88.7246 13.328L91.2162 11.6912V7.29697L94.4266 4.96579L94.2592 4.88647C93.4319 5.23366 92.585 4.51951 91.6199 4.57903C90.263 4.64087 88.9778 5.21033 88.0156 6.17606C88.5512 5.91865 89.1437 5.80522 89.7356 5.84694C90.3276 5.88866 90.8987 6.0841 91.3934 6.41412" fill="white"/>
<path d="M95.8053 9.84606C96.6151 9.39241 97.3441 8.8057 97.962 8.11015C98.4347 7.36618 97.0954 5.87829 96.406 4.80699L95.825 4.64824L91.7677 7.56464V12.5244C91.7677 13.1295 91.4525 12.9608 91.4722 13.298L94.0327 11.5721V6.66193L94.7122 6.1461V13.8437L93.3335 13.4866C92.4386 13.3836 91.5325 13.5117 90.7004 13.8588C89.8683 14.2059 89.1375 14.7605 88.5769 15.4705C89.4918 15.0718 90.4904 14.9076 91.4837 14.9924C92.4769 15.0772 93.4338 15.4084 94.269 15.9565L97.8044 13.4369C98.3756 12.9013 98.0309 11.9292 98.0506 11.2448C97.9521 10.0842 96.6424 10.0147 95.8053 9.84606ZM95.5 14.2107L95.2538 14.0718V10.4809C95.5296 10.4809 95.697 10.8182 95.6871 11.1357C95.6871 11.1357 95.6871 13.6354 95.6871 13.8735C95.6885 13.9387 95.6692 14.0028 95.632 14.0563C95.5948 14.1098 95.5417 14.1499 95.4803 14.171L95.5 14.2107ZM95.2341 9.33023V7.02895C95.9038 7.51501 96.5242 9.0128 95.2341 9.33023Z" fill="white"/>
<path d="M75.3529 16.0557C74.9171 16.0655 74.4873 15.9521 74.1121 15.7284C73.7637 15.5162 73.4807 15.2105 73.2948 14.8456C73.1022 14.4436 73.0045 14.0023 73.0092 13.556C73.0019 13.1115 73.1034 12.6721 73.3046 12.2765C73.4906 11.9115 73.7735 11.6059 74.122 11.3936C74.4971 11.1709 74.9276 11.0607 75.3628 11.0761C75.7052 11.0756 76.0427 11.1572 76.3476 11.3142C76.6382 11.4649 76.8806 11.6953 77.0468 11.9788V9.00298H77.8445V15.9466H77.1158L77.0468 15.153C76.8744 15.407 76.6493 15.6203 76.387 15.778C76.0756 15.9679 75.7169 16.0643 75.3529 16.0557ZM75.4317 15.3614C75.7297 15.3665 76.023 15.2874 76.2786 15.1332C76.5239 14.9834 76.7219 14.7669 76.8498 14.5084C76.9863 14.2132 77.057 13.8915 77.057 13.5659C77.057 13.2403 76.9863 12.9188 76.8498 12.6236C76.7219 12.3651 76.5239 12.1484 76.2786 11.9987C76.023 11.8445 75.7297 11.7655 75.4317 11.7706C75.1404 11.7681 74.854 11.8471 74.6045 11.9987C74.3593 12.1484 74.1613 12.3651 74.0334 12.6236C73.8969 12.9188 73.8262 13.2403 73.8262 13.5659C73.8262 13.8915 73.8969 14.2132 74.0334 14.5084C74.1613 14.7669 74.3593 14.9834 74.6045 15.1332C74.854 15.2848 75.1404 15.3639 75.4317 15.3614Z" fill="white"/>
<path d="M81.3113 16.0557C80.8906 16.0646 80.4754 15.9584 80.1099 15.7482C79.7614 15.5373 79.4756 15.2358 79.2827 14.8753C79.077 14.4706 78.9755 14.0203 78.9872 13.5658C78.9775 13.1116 79.079 12.6619 79.2827 12.2565C79.4697 11.8917 79.7568 11.5887 80.1099 11.3836C80.4815 11.1709 80.9038 11.0645 81.331 11.076C81.7459 11.064 82.1556 11.1707 82.5128 11.3836C82.8399 11.5807 83.1059 11.8658 83.2809 12.2069C83.4573 12.543 83.5486 12.9178 83.5468 13.298V13.5064C83.5415 13.5857 83.5415 13.6652 83.5468 13.7444H79.7849C79.7925 14.0655 79.8806 14.3794 80.041 14.657C80.1764 14.8835 80.3704 15.0687 80.6023 15.1927C80.8367 15.3313 81.1035 15.4044 81.3753 15.4044C81.6472 15.4044 81.9141 15.3313 82.1484 15.1927C82.3711 15.0456 82.5404 14.8298 82.631 14.5777H83.4286C83.3035 15.0085 83.0489 15.3896 82.6999 15.6688C82.2969 15.9588 81.805 16.0959 81.3113 16.0557ZM81.3113 11.7506C80.954 11.7534 80.6076 11.8755 80.3265 12.0978C80.1798 12.2203 80.0588 12.3712 79.9709 12.5416C79.8829 12.7119 79.8298 12.8983 79.8145 13.0897H82.7689C82.768 12.9024 82.7281 12.7173 82.6518 12.5464C82.5754 12.3755 82.4643 12.2227 82.3257 12.0978C82.0457 11.8529 81.6815 11.7283 81.3113 11.7506Z" fill="white"/>
</svg>
