<svg width="33" height="32" viewBox="0 0 33 32" fill="none" xmlns="http://www.w3.org/2000/svg">
<path fill-rule="evenodd" clip-rule="evenodd" d="M7.64875 6.98864C7.45607 7.07837 7.28046 7.245 7.18062 7.43287C7.07745 7.62695 7.07745 8.05306 7.18062 8.24714C7.28167 8.43731 7.45809 8.60333 7.65476 8.69338L7.82302 8.7704L9.32151 8.76122C10.7854 8.75223 10.823 8.7504 10.948 8.68314C11.1218 8.58964 11.3 8.40477 11.3875 8.2272C11.4861 8.02698 11.4881 7.66327 11.3917 7.456C11.3041 7.26775 11.1154 7.08212 10.916 6.9881L10.756 6.91264H9.28401H7.81201L7.64875 6.98864ZM14.1047 7.55376C13.6648 7.64224 13.3377 8.07789 13.3726 8.52861C13.3995 8.87696 13.6053 9.17168 13.924 9.31837L14.084 9.392L17.764 9.408L21.444 9.424L21.5982 9.50276C21.7864 9.59892 21.9862 9.80989 22.0789 10.0104L22.148 10.16L22.1569 14.4683L22.1657 18.7766L22.0289 18.8479C21.4455 19.1519 20.9306 19.6839 20.6199 20.304C20.4938 20.5556 20.3577 20.9632 20.3235 21.192L20.3007 21.344H19.5044H18.708V21.2516C18.708 21.2007 18.6713 21.0316 18.6265 20.8756C18.2989 19.7355 17.4206 18.8769 16.2496 18.552C16.043 18.4947 15.9151 18.4837 15.444 18.4829C14.8214 18.4818 14.5752 18.5274 14.1211 18.7281C13.1057 19.1766 12.3685 20.0873 12.1763 21.1307L12.1372 21.3427L9.3186 21.3513C6.62631 21.3596 6.49499 21.3627 6.38801 21.4204C6.16423 21.5411 6.03831 21.6675 5.93697 21.8733C5.84318 22.0638 5.83681 22.0976 5.85035 22.3312C5.86692 22.6177 5.95086 22.7986 6.14721 22.971C6.40942 23.2012 6.13844 23.183 9.45169 23.1926L12.4354 23.2013L12.5042 23.3366C12.9145 24.1436 13.6922 24.7439 14.676 25.0132C15.0008 25.1021 15.8823 25.0943 16.2316 24.9994C16.8887 24.8209 17.3027 24.5801 17.78 24.0988C18.0255 23.8513 18.1591 23.6849 18.276 23.4814L18.436 23.2028L19.5155 23.2014L20.5949 23.2L20.6727 23.3535C20.7874 23.5799 21.1035 23.9908 21.3191 24.1939C21.725 24.5762 22.2238 24.8456 22.836 25.0132C22.9971 25.0573 23.1668 25.0702 23.588 25.0706C24.0813 25.0709 24.1609 25.063 24.4416 24.9849C25.0313 24.8209 25.5178 24.5401 25.935 24.1229C26.1532 23.9047 26.4588 23.4905 26.5496 23.2899L26.5886 23.2037L27.9363 23.1928L29.284 23.1818L29.5332 23.0949C30.5434 22.7422 31.2316 22.0087 31.4945 21.0043C31.5478 20.8005 31.553 20.5373 31.564 17.488C31.5761 14.1428 31.564 13.6449 31.4576 13.1289C31.1241 11.51 29.9942 10.2157 28.4486 9.68196C27.7539 9.44208 27.3763 9.40807 25.407 9.40804L23.8661 9.408L23.7682 9.19895C23.4062 8.42528 22.7141 7.84868 21.86 7.60925L21.604 7.53747L17.924 7.53162C15.9 7.52839 14.1813 7.53834 14.1047 7.55376ZM24.02 14.8792C24.02 17.7212 24.0283 18.4684 24.06 18.4774C24.082 18.4837 24.223 18.5176 24.3734 18.5527C25.3322 18.7768 26.188 19.4783 26.6092 20.3856C26.7217 20.628 26.868 21.1186 26.868 21.2536V21.348L27.916 21.338L28.964 21.328L29.124 21.2428C29.317 21.1399 29.4922 20.9627 29.5933 20.768L29.668 20.624L29.6765 17.832L29.685 15.04L28.1565 15.0397L26.628 15.0394L26.468 14.9635C25.8975 14.693 25.7502 13.952 26.1739 13.483C26.236 13.4142 26.3565 13.3224 26.4415 13.2789L26.596 13.2L28.06 13.1911C29.0098 13.1853 29.524 13.1709 29.524 13.1501C29.524 13.0738 29.3454 12.7028 29.2146 12.5077C29.0433 12.2519 28.6791 11.8921 28.431 11.7335C28.2083 11.5912 27.9467 11.4737 27.652 11.3836C27.4374 11.318 27.3565 11.3147 25.724 11.3038L24.02 11.2924V14.8792ZM5.23582 11.9659C4.85031 12.0832 4.59038 12.4449 4.59038 12.864C4.59038 13.2272 4.77665 13.5332 5.09745 13.6971L5.25201 13.776L7.97742 13.7845C10.6652 13.7929 10.7052 13.7921 10.8797 13.7269C11.1205 13.6368 11.359 13.378 11.4317 13.1281C11.5621 12.6794 11.3471 12.2119 10.9186 12.0124L10.756 11.9366L8.03601 11.9391C6.54001 11.9404 5.27991 11.9525 5.23582 11.9659ZM2.00401 17.0262C1.72414 17.1533 1.5179 17.4134 1.46343 17.7082C1.38468 18.1342 1.57783 18.5205 1.97201 18.7252L2.11601 18.8H6.14801H10.18L10.3151 18.7278C10.9903 18.3671 11.0157 17.4485 10.3613 17.0638L10.212 16.976L6.18001 16.9685C2.18004 16.9609 2.14686 16.9614 2.00401 17.0262ZM15.0973 20.3691C14.6444 20.4674 14.2457 20.8268 14.0692 21.296C13.968 21.5652 13.968 21.9868 14.0692 22.256C14.4487 23.2648 15.6932 23.5465 16.4459 22.7939C17.2483 21.9914 16.8637 20.6292 15.7612 20.3693C15.5138 20.311 15.3652 20.3109 15.0973 20.3691ZM23.284 20.3636C22.5566 20.5216 22.0665 21.2331 22.1678 21.984C22.2284 22.4326 22.5635 22.8896 22.9746 23.084C23.7894 23.4695 24.7657 23.0069 24.995 22.1269C25.1224 21.6374 24.9816 21.1285 24.618 20.765C24.407 20.5539 24.1959 20.4341 23.9212 20.3693C23.6804 20.3125 23.5254 20.3112 23.284 20.3636Z" fill="#00DBBC"/>
</svg>
